<svg width="156" height="156" viewBox="0 0 156 156" fill="none" xmlns="http://www.w3.org/2000/svg">
<g clip-path="url(#clip0_928_42)">
<path d="M155.378 78.2591H101.905C101.796 78.2591 101.689 78.2302 101.595 78.176C101.5 78.1212 101.422 78.0433 101.368 77.9488L95.9257 68.5629L94.43 65.9653C92.7156 62.9649 90.1911 60.5047 87.1442 58.8661C84.4093 57.4129 81.3583 56.6533 78.2601 56.6533C75.1614 56.6533 72.1109 57.4129 69.376 58.8661C66.3286 60.5047 63.8041 62.9644 62.0902 65.9653L60.5836 68.5691L55.1542 77.9488C55.0993 78.0433 55.021 78.1212 54.9267 78.176C54.8324 78.2302 54.7251 78.2591 54.6163 78.2591H0.830979C0.748508 78.2591 0.669414 78.2266 0.611098 78.1682C0.552781 78.1099 0.52002 78.0309 0.52002 77.9488C0.52002 77.7081 0.52002 77.3838 0.52002 77.187C0.55759 74.3039 0.754832 71.4254 1.11084 68.5644C3.53447 49.0193 13.3175 31.1261 28.4756 18.5136C43.6336 5.90102 63.0319 -0.486372 82.7358 0.646883C102.44 1.78014 120.974 10.3492 134.58 24.616C148.185 38.8829 155.843 57.7791 156 77.4726C156 77.4943 156 77.5578 156 77.6415C155.999 77.8057 155.933 77.9627 155.817 78.0784C155.7 78.194 155.542 78.2591 155.378 78.2591Z" fill="black"/>
<path d="M155.167 88.1063C155.212 88.1063 155.256 88.115 155.296 88.1329C155.337 88.1508 155.373 88.1773 155.402 88.21C155.431 88.2427 155.454 88.2815 155.467 88.3234C155.479 88.3658 155.483 88.4097 155.477 88.4531C154.647 94.7779 153.017 100.974 150.624 106.896C150.578 107.01 150.498 107.108 150.395 107.177C150.292 107.246 150.171 107.282 150.047 107.282H118.965C118.856 107.282 118.749 107.254 118.655 107.2C118.561 107.146 118.482 107.069 118.428 106.975L113.011 97.6969L107.681 88.567C107.654 88.52 107.64 88.4674 107.64 88.4133C107.64 88.3597 107.654 88.3065 107.681 88.2601C107.708 88.2136 107.748 88.1748 107.795 88.1477C107.842 88.1206 107.895 88.1068 107.95 88.1063H155.167Z" fill="black"/>
<path d="M49.0868 88.1063C49.1418 88.1068 49.1958 88.1206 49.2435 88.1477C49.2911 88.1747 49.3306 88.2135 49.3581 88.26C49.3856 88.3065 49.4 88.3596 49.4 88.4132C49.4 88.4673 49.3855 88.5199 49.358 88.5669L43.9656 97.6938L38.487 106.976C38.432 107.069 38.353 107.146 38.2578 107.2C38.1626 107.254 38.0546 107.282 37.9446 107.282H6.53073C6.40444 107.282 6.28118 107.245 6.17709 107.174C6.07306 107.104 5.99306 107.005 5.9476 106.89C3.52911 100.97 1.8812 94.7758 1.0427 88.453C1.03687 88.4096 1.04065 88.3657 1.05377 88.3233C1.06689 88.2815 1.08906 88.2427 1.11877 88.21C1.14848 88.1773 1.18506 88.1507 1.22602 88.1329C1.26698 88.115 1.31138 88.1063 1.35621 88.1063H49.0868Z" fill="black"/>
<path d="M145.286 117.134C145.341 117.134 145.395 117.149 145.443 117.176C145.491 117.203 145.53 117.242 145.558 117.289C145.585 117.336 145.6 117.39 145.6 117.444C145.6 117.498 145.585 117.551 145.558 117.598C143.633 120.816 141.474 123.893 139.099 126.804C137.485 128.782 135.776 130.679 133.974 132.494C133.906 132.561 133.822 132.613 133.731 132.644C133.64 132.675 133.542 132.685 133.447 132.672C133.351 132.661 133.259 132.627 133.179 132.574C133.098 132.521 133.031 132.451 132.983 132.369L129.72 126.799L124.322 117.593C124.295 117.547 124.28 117.493 124.28 117.439C124.28 117.385 124.295 117.331 124.322 117.285C124.35 117.237 124.389 117.199 124.437 117.171C124.485 117.144 124.539 117.13 124.594 117.13L145.286 117.134Z" fill="black"/>
<path d="M31.9339 117.13C31.9877 117.13 32.0405 117.144 32.087 117.171C32.1336 117.199 32.1722 117.238 32.1991 117.285C32.226 117.331 32.2401 117.385 32.2401 117.439C32.2401 117.494 32.2259 117.547 32.199 117.594L26.9326 126.8L23.7485 132.368C23.7014 132.451 23.6359 132.521 23.5574 132.574C23.4789 132.627 23.3894 132.66 23.2958 132.673C23.2023 132.685 23.1072 132.675 23.018 132.644C22.9288 132.613 22.8479 132.561 22.7816 132.493C21.0246 130.681 19.3575 128.785 17.7803 126.804C15.4635 123.894 13.3582 120.818 11.4811 117.602C11.4543 117.554 11.4401 117.501 11.4401 117.447C11.4401 117.393 11.4542 117.34 11.4811 117.292C11.5079 117.245 11.5466 117.206 11.5931 117.179C11.6397 117.152 11.6925 117.138 11.7462 117.137L31.9339 117.13Z" fill="black"/>
<path d="M127.917 146.3C127.78 151.392 123.665 156 117.954 156H38.5657C32.8548 156 28.7398 151.392 28.603 146.3C28.5574 144.469 29.0229 142.662 29.9472 141.081L30.7351 139.717L32.544 136.587L38.1539 126.874L43.7607 117.158L49.3706 107.445L54.982 97.7303L60.5919 88.0175L66.2049 78.2965L69.6423 72.3492C70.5462 70.7616 71.8749 69.458 73.4791 68.5838C74.9477 67.7908 76.5907 67.3754 78.2602 67.3754C79.9292 67.3754 81.5723 67.7908 83.0408 68.5838C84.6451 69.458 85.9737 70.7616 86.8776 72.3492L90.315 78.2965L95.9234 88.0113L101.533 97.7241L107.145 107.438L112.755 117.152L118.366 126.866L123.976 136.579L125.783 139.709L126.573 141.081C127.497 142.662 127.963 144.469 127.917 146.3Z" fill="black"/>
</g>
<defs>
<clipPath id="clip0_928_42">
<rect width="156" height="156" fill="white"/>
</clipPath>
</defs>
</svg>
