<svg viewBox="0 0 24 24" fill="currentColor" class="ficon"><path d="M17.7161 8.66667H16.7638V6.7619C16.7638 4.13333 14.6304 2 12.0019 2C9.37329 2 7.23996 4.13333 7.23996 6.7619V8.66667H6.28757C5.23996 8.66667 4.38281 9.52381 4.38281 10.5714V20.0952C4.38281 21.1429 5.23996 22 6.28757 22H17.7161C18.7638 22 19.6209 21.1429 19.6209 20.0952V10.5714C19.6209 9.52381 18.7638 8.66667 17.7161 8.66667ZM12.0019 17.2381C10.9542 17.2381 10.0971 16.381 10.0971 15.3333C10.0971 14.2857 10.9542 13.4286 12.0019 13.4286C13.0495 13.4286 13.9066 14.2857 13.9066 15.3333C13.9066 16.381 13.0495 17.2381 12.0019 17.2381ZM14.9542 8.66667H9.04948V6.7619C9.04948 5.13333 10.3733 3.80952 12.0019 3.80952C13.6304 3.80952 14.9542 5.13333 14.9542 6.7619V8.66667Z"></path></svg>
