<svg width="120" height="48" viewBox="0 0 120 48" fill="none" xmlns="http://www.w3.org/2000/svg">
<path d="M20.6084 2.51074L21.0703 2.53223C25.8456 2.80794 30.3464 4.83567 33.7178 8.21875L34.041 8.55078C37.3757 12.0602 39.2813 16.6854 39.3945 21.5215H26.2148L24.917 19.2744H24.916L24.5332 18.6064C24.1079 17.8598 23.5065 17.2313 22.7842 16.7734L22.4678 16.5869L22.4648 16.5859L22.1709 16.4404C21.4749 16.1225 20.7177 15.957 19.9502 15.957C19.1827 15.957 18.4254 16.1225 17.7295 16.4404L17.4346 16.5859L17.4326 16.5869C16.6759 16.9952 16.0332 17.583 15.5586 18.2959L15.3672 18.6055L14.9805 19.2764L13.6865 21.5215H0.505859C0.517379 21.0554 0.544294 20.59 0.588867 20.126L0.647461 19.5869V19.5859C1.23497 14.8317 3.55073 10.4667 7.14258 7.31934L7.49414 7.01855C11.1682 3.95056 15.8383 2.34903 20.6084 2.51074Z" fill="#FDFDFF" stroke="#FDFDFF"/>
<path d="M39.1689 25.021C38.9574 26.3864 38.5998 27.7248 38.1025 29.0142H30.5361L29.2412 26.7681L28.2324 25.021H39.1689Z" fill="#FDFDFF" stroke="#FDFDFF"/>
<path d="M11.668 25.021L10.6592 26.7681L9.3623 29.0161H1.79883C1.30132 27.7261 0.943023 26.3871 0.731445 25.021H11.668Z" fill="#FDFDFF" stroke="#FDFDFF"/>
<path d="M36.332 32.5122C36.0853 32.8971 35.8258 33.2735 35.5527 33.6401L35.1211 34.1978C34.8155 34.5784 34.4959 34.9466 34.1631 35.3032L33.5615 34.2603L32.5527 32.5122H36.332Z" fill="#FDFDFF" stroke="#FDFDFF"/>
<path d="M6.33936 34.2612H6.33838L5.73584 35.3042C5.51252 35.0649 5.29481 34.8203 5.0835 34.5698L4.77881 34.1987C4.34566 33.6591 3.94205 33.0966 3.56885 32.5142L7.34619 32.5132L6.33936 34.2612Z" fill="#FDFDFF" stroke="#FDFDFF"/>
<path d="M19.9507 19.7139C20.2961 19.7139 20.636 19.8004 20.9399 19.9648V19.9639C21.2284 20.1215 21.4734 20.3472 21.6548 20.6201L21.728 20.7402L21.73 20.7432L22.6128 22.2715L24.0522 24.7695L25.4927 27.2666L26.9341 29.7646L28.3745 32.2617L29.8149 34.7598L31.2554 37.2568L31.7192 38.0615V38.0605L31.9214 38.4131L31.9233 38.416C32.1136 38.7419 32.2098 39.1148 32.2007 39.4922C32.1723 40.5516 31.3171 41.5 30.1421 41.5H9.7583C8.65673 41.4999 7.83683 40.6666 7.71533 39.6895L7.70068 39.4922C7.69269 39.162 7.76498 38.8357 7.91064 38.541L7.97705 38.416L7.979 38.4141L8.18115 38.0635L8.64502 37.2588L10.0854 34.7617L10.0864 34.7607L11.5249 32.2627L11.5259 32.2637L12.9663 29.7656L14.4067 27.2686L15.8472 24.7705L17.2886 22.2715L18.1704 20.7432L18.1724 20.7402C18.3585 20.4129 18.6323 20.144 18.9624 19.9639L18.9614 19.9629C19.2652 19.7988 19.6056 19.7139 19.9507 19.7139Z" fill="#FDFDFF" stroke="#FDFDFF"/>
<path d="M60.1812 22.4019V23.1636H52.7915C52.6757 23.1636 52.5646 23.1984 52.4712 23.2603L52.3843 23.3315L52.3794 23.3364C52.2728 23.4445 52.2125 23.5905 52.2124 23.7437V27.939C52.2124 28.0539 52.246 28.1653 52.3081 28.2593L52.3794 28.3472L52.3843 28.3521C52.4908 28.4569 52.6364 28.519 52.7915 28.519H59.311V29.2417H52.7915C52.6756 29.2417 52.5647 29.2764 52.4712 29.3384L52.3843 29.4087L52.3794 29.4136C52.2728 29.5216 52.2125 29.6677 52.2124 29.8208V34.2388C52.2125 34.3535 52.2462 34.4643 52.3081 34.5581L52.3794 34.646L52.3843 34.6509C52.4914 34.7565 52.6371 34.8179 52.7915 34.8179H60.4644V35.5806H51.1899V22.4019H60.1812Z" fill="#FDFDFF" stroke="#FDFDFF"/>
<path d="M65.3545 22.4048L69.6709 29.5249L69.6719 29.5278C69.7223 29.6099 69.7943 29.6796 69.8818 29.729V29.73C69.9681 29.7786 70.0663 29.8042 70.167 29.8042C70.2411 29.8042 70.3148 29.7901 70.3838 29.7622L70.4512 29.73L70.457 29.7271C70.5313 29.684 70.6054 29.6171 70.6611 29.5249L70.6621 29.5259L74.998 22.4048H75.8311L70.6924 30.8823C70.6298 30.9857 70.5967 31.1039 70.5967 31.2241V35.5806H69.5947V31.1841C69.5947 31.0942 69.5757 31.0051 69.54 30.9224L69.499 30.8413L69.498 30.8403L64.3623 22.4048H65.3545Z" fill="#FDFDFF" stroke="#FDFDFF"/>
<path d="M90.6201 22.4023L94.332 33.4229L94.335 33.4297C94.3632 33.5096 94.4094 33.5857 94.4736 33.6494L94.5439 33.709C94.6422 33.7794 94.7605 33.8174 94.8818 33.8174C94.9722 33.8174 95.0616 33.7965 95.1426 33.7559L95.2197 33.709C95.2958 33.6544 95.3542 33.5843 95.3945 33.5078L95.4287 33.4297L95.4316 33.4229L99.1436 22.4023H100.013L95.6143 35.5801H94.209L90.5371 24.8184C90.4968 24.6998 90.42 24.602 90.3252 24.5342H90.3262C90.2532 24.4819 90.1687 24.4468 90.0791 24.4326L89.9883 24.4258C89.8962 24.4258 89.8073 24.448 89.7275 24.4883L89.6504 24.5342C89.5784 24.5858 89.5175 24.6552 89.4746 24.7373L89.4395 24.8184L85.7676 35.5801H84.3213L79.9219 22.4033H80.9512L84.585 33.3613L84.5879 33.3711C84.6254 33.477 84.6956 33.5772 84.7979 33.6504V33.6494C84.8961 33.7198 85.0145 33.7588 85.1357 33.7588C85.2556 33.7587 85.3727 33.72 85.4717 33.6494L85.4727 33.6504C85.5727 33.5789 85.6443 33.4782 85.6826 33.3662L85.6836 33.3672L89.4746 22.4023H90.6201Z" fill="#FDFDFF" stroke="#FDFDFF"/>
<path d="M110.012 22.4031L115.989 35.5789H114.968L113.584 32.4294L113.538 32.3425C113.504 32.2882 113.462 32.24 113.415 32.199L113.341 32.1433L113.338 32.1414L113.255 32.0955C113.169 32.0562 113.075 32.0359 112.98 32.0359H105.664C105.568 32.0359 105.474 32.0576 105.388 32.0974L105.304 32.1433C105.223 32.196 105.155 32.2655 105.104 32.3464L105.061 32.4304L103.676 35.5808H102.695L108.654 22.4031H110.012ZM109.322 23.5876C109.236 23.5877 109.153 23.6062 109.079 23.6404L109.009 23.6794L109.004 23.6833C108.936 23.728 108.876 23.7882 108.83 23.8621L108.792 23.9333L105.863 30.5955C105.819 30.6929 105.807 30.7901 105.812 30.8728L105.812 30.8796V30.8875C105.819 30.9576 105.838 31.0261 105.869 31.0896L105.903 31.1511C105.944 31.2135 105.995 31.2659 106.053 31.3074L106.113 31.3455L106.118 31.3484C106.199 31.3912 106.292 31.4158 106.391 31.4158H112.269C112.361 31.4135 112.453 31.3881 112.536 31.3416L112.537 31.3425C112.602 31.3064 112.657 31.2593 112.701 31.2058L112.741 31.1511L112.748 31.1394C112.781 31.0857 112.809 31.0213 112.823 30.948L112.833 30.8728C112.837 30.8099 112.831 30.7386 112.809 30.6658L112.78 30.5925L109.854 23.9343L109.396 24.1355L109.854 23.9333L109.852 23.9294L109.813 23.8591C109.772 23.7923 109.714 23.7312 109.642 23.6833H109.643C109.57 23.6355 109.489 23.6056 109.406 23.5935L109.322 23.5876Z" fill="#FDFDFF" stroke="#FDFDFF"/>
</svg>
